<svg width="713" height="336" viewBox="0 0 713 336" fill="none" xmlns="http://www.w3.org/2000/svg">
<rect width="713" height="336" fill="#F5F5F5"/>
<rect width="713" height="336" fill="white"/>
<path d="M93.2045 206H41.642V60.5455H93.6307C108.261 60.5455 120.856 63.4574 131.415 69.2812C141.973 75.0578 150.094 83.3674 155.776 94.2102C161.505 105.053 164.369 118.027 164.369 133.131C164.369 148.282 161.505 161.303 155.776 172.193C150.094 183.083 141.926 191.44 131.273 197.264C120.667 203.088 107.977 206 93.2045 206ZM72.3949 179.651H91.9261C101.017 179.651 108.664 178.041 114.866 174.821C121.116 171.554 125.804 166.511 128.929 159.693C132.101 152.828 133.688 143.973 133.688 133.131C133.688 122.383 132.101 113.599 128.929 106.781C125.804 99.9631 121.14 94.9441 114.938 91.7244C108.735 88.5047 101.088 86.8949 91.9972 86.8949H72.3949V179.651ZM235.871 208.131C224.839 208.131 215.299 205.787 207.249 201.099C199.247 196.365 193.068 189.783 188.712 181.355C184.356 172.88 182.178 163.055 182.178 151.881C182.178 140.612 184.356 130.763 188.712 122.335C193.068 113.86 199.247 107.278 207.249 102.591C215.299 97.8561 224.839 95.4886 235.871 95.4886C246.904 95.4886 256.421 97.8561 264.423 102.591C272.472 107.278 278.674 113.86 283.031 122.335C287.387 130.763 289.565 140.612 289.565 151.881C289.565 163.055 287.387 172.88 283.031 181.355C278.674 189.783 272.472 196.365 264.423 201.099C256.421 205.787 246.904 208.131 235.871 208.131ZM236.013 184.693C241.032 184.693 245.223 183.273 248.585 180.432C251.946 177.544 254.479 173.614 256.184 168.642C257.936 163.67 258.812 158.012 258.812 151.668C258.812 145.323 257.936 139.665 256.184 134.693C254.479 129.722 251.946 125.792 248.585 122.903C245.223 120.015 241.032 118.571 236.013 118.571C230.947 118.571 226.686 120.015 223.229 122.903C219.82 125.792 217.24 129.722 215.488 134.693C213.783 139.665 212.931 145.323 212.931 151.668C212.931 158.012 213.783 163.67 215.488 168.642C217.24 173.614 219.82 177.544 223.229 180.432C226.686 183.273 230.947 184.693 236.013 184.693ZM367.263 96.9091V119.636H301.567V96.9091H367.263ZM316.482 70.7727H346.738V172.477C346.738 175.271 347.164 177.449 348.016 179.011C348.869 180.527 350.052 181.592 351.567 182.207C353.13 182.823 354.929 183.131 356.965 183.131C358.386 183.131 359.806 183.012 361.227 182.776C362.647 182.491 363.736 182.278 364.494 182.136L369.252 204.651C367.737 205.124 365.606 205.669 362.86 206.284C360.114 206.947 356.776 207.349 352.846 207.491C345.554 207.776 339.162 206.805 333.67 204.58C328.225 202.354 323.987 198.898 320.957 194.21C317.926 189.523 316.435 183.604 316.482 176.455V70.7727ZM488.677 96.9091L450.538 206H416.447L378.308 96.9091H410.268L432.924 174.963H434.06L456.646 96.9091H488.677ZM504.16 206V96.9091H534.415V206H504.16ZM519.359 82.8466C514.861 82.8466 511.002 81.3551 507.782 78.3722C504.61 75.3419 503.023 71.7197 503.023 67.5057C503.023 63.339 504.61 59.7642 507.782 56.7812C511.002 53.7509 514.861 52.2358 519.359 52.2358C523.857 52.2358 527.692 53.7509 530.864 56.7812C534.084 59.7642 535.694 63.339 535.694 67.5057C535.694 71.7197 534.084 75.3419 530.864 78.3722C527.692 81.3551 523.857 82.8466 519.359 82.8466ZM586.067 174.608L586.138 138.315H590.541L625.484 96.9091H660.214L613.268 151.739H606.095L586.067 174.608ZM558.652 206V60.5455H588.908V206H558.652ZM626.834 206L594.732 158.486L614.902 137.108L662.274 206H626.834Z" fill="#3C484F"/>
<ellipse cx="519.272" cy="64.5" rx="19.5308" ry="19.5" fill="#CD3440"/>
<path d="M218.328 270.6C216.128 270.6 214.178 270.133 212.478 269.2C210.811 268.233 209.494 266.867 208.528 265.1C207.594 263.3 207.128 261.183 207.128 258.75C207.128 255.983 207.694 253.433 208.828 251.1C209.994 248.767 211.628 246.9 213.728 245.5C215.861 244.1 218.344 243.4 221.178 243.4C223.111 243.4 224.744 243.767 226.078 244.5C227.444 245.233 228.494 246.183 229.228 247.35C229.961 248.517 230.328 249.767 230.328 251.1C230.328 252.933 229.894 254.45 229.028 255.65C228.161 256.85 227.044 257.783 225.678 258.45C224.311 259.083 222.828 259.533 221.228 259.8C219.661 260.067 218.161 260.2 216.728 260.2C215.828 260.2 214.928 260.167 214.028 260.1C213.161 260 212.394 259.9 211.728 259.8C211.994 262 212.778 263.683 214.078 264.85C215.378 266.017 217.044 266.6 219.078 266.6C220.744 266.6 222.228 266.383 223.528 265.95C224.828 265.517 225.928 265.083 226.828 264.65L227.228 268.65C226.228 269.117 224.961 269.567 223.428 270C221.894 270.4 220.194 270.6 218.328 270.6ZM220.828 247.2C219.261 247.2 217.844 247.6 216.578 248.4C215.311 249.167 214.261 250.233 213.428 251.6C212.628 252.933 212.094 254.467 211.828 256.2C212.594 256.333 213.361 256.45 214.128 256.55C214.928 256.617 215.794 256.65 216.728 256.65C219.528 256.65 221.744 256.267 223.378 255.5C225.011 254.7 225.828 253.35 225.828 251.45C225.828 250.283 225.361 249.283 224.428 248.45C223.528 247.617 222.328 247.2 220.828 247.2ZM249.356 247.35C248.19 247.35 246.923 247.783 245.556 248.65C244.19 249.517 242.923 250.867 241.756 252.7C240.623 254.5 239.806 256.817 239.306 259.65L237.506 270H233.006L237.556 244H241.906L240.806 250C241.84 248 243.223 246.4 244.956 245.2C246.723 244 248.573 243.4 250.506 243.4C252.773 243.4 254.59 244.1 255.956 245.5C257.323 246.867 258.006 248.55 258.006 250.55C258.006 251.383 257.906 252.433 257.706 253.7L254.856 270H250.356L253.106 254.45C253.273 253.65 253.373 253.067 253.406 252.7C253.44 252.3 253.456 251.933 253.456 251.6C253.456 250.3 253.073 249.267 252.306 248.5C251.573 247.733 250.59 247.35 249.356 247.35ZM263.35 244.95H267.95L270.35 236.75H273.8L272.35 244.95H279.55L278.9 248.85H271.65L269.55 261C269.483 261.367 269.433 261.717 269.4 262.05C269.367 262.35 269.35 262.633 269.35 262.9C269.35 264.067 269.7 264.983 270.4 265.65C271.1 266.283 272.017 266.6 273.15 266.6C274.117 266.6 274.933 266.467 275.6 266.2C276.267 265.9 276.867 265.6 277.4 265.3L277.95 269.2C277.317 269.567 276.517 269.883 275.55 270.15C274.617 270.45 273.567 270.6 272.4 270.6C271.167 270.6 269.967 270.35 268.8 269.85C267.667 269.35 266.733 268.567 266 267.5C265.267 266.4 264.9 264.983 264.9 263.25C264.9 262.517 264.967 261.7 265.1 260.8L267.15 248.85H262.7L263.35 244.95ZM292.693 270.6C290.493 270.6 288.543 270.133 286.843 269.2C285.176 268.233 283.859 266.867 282.893 265.1C281.959 263.3 281.493 261.183 281.493 258.75C281.493 255.983 282.059 253.433 283.193 251.1C284.359 248.767 285.993 246.9 288.093 245.5C290.226 244.1 292.709 243.4 295.543 243.4C297.476 243.4 299.109 243.767 300.443 244.5C301.809 245.233 302.859 246.183 303.593 247.35C304.326 248.517 304.693 249.767 304.693 251.1C304.693 252.933 304.259 254.45 303.393 255.65C302.526 256.85 301.409 257.783 300.043 258.45C298.676 259.083 297.193 259.533 295.593 259.8C294.026 260.067 292.526 260.2 291.093 260.2C290.193 260.2 289.293 260.167 288.393 260.1C287.526 260 286.759 259.9 286.093 259.8C286.359 262 287.143 263.683 288.443 264.85C289.743 266.017 291.409 266.6 293.443 266.6C295.109 266.6 296.593 266.383 297.893 265.95C299.193 265.517 300.293 265.083 301.193 264.65L301.593 268.65C300.593 269.117 299.326 269.567 297.793 270C296.259 270.4 294.559 270.6 292.693 270.6ZM295.193 247.2C293.626 247.2 292.209 247.6 290.943 248.4C289.676 249.167 288.626 250.233 287.793 251.6C286.993 252.933 286.459 254.467 286.193 256.2C286.959 256.333 287.726 256.45 288.493 256.55C289.293 256.617 290.159 256.65 291.093 256.65C293.893 256.65 296.109 256.267 297.743 255.5C299.376 254.7 300.193 253.35 300.193 251.45C300.193 250.283 299.726 249.283 298.793 248.45C297.893 247.617 296.693 247.2 295.193 247.2ZM311.422 251.3C311.455 251.133 311.472 250.95 311.472 250.75C311.505 250.517 311.522 250.283 311.522 250.05C311.522 249.117 311.255 248.467 310.722 248.1C310.188 247.7 309.488 247.5 308.622 247.5L310.172 244C311.938 244 313.288 244.433 314.222 245.3C315.188 246.133 315.672 247.383 315.672 249.05V250.05C316.638 247.683 317.872 245.983 319.372 244.95C320.905 243.917 322.638 243.4 324.572 243.4C325.338 243.4 325.988 243.467 326.522 243.6C327.088 243.7 327.555 243.833 327.922 244L325.922 248.4C325.522 248.233 325.105 248.117 324.672 248.05C324.238 247.983 323.738 247.95 323.172 247.95C321.972 247.95 320.772 248.383 319.572 249.25C318.405 250.083 317.338 251.483 316.372 253.45C315.438 255.417 314.672 258.117 314.072 261.55L312.622 270H308.122L311.422 251.3ZM330.635 244C334.102 244 335.835 245.5 335.835 248.5V249.55C336.802 247.75 338.052 246.283 339.585 245.15C341.119 243.983 342.902 243.4 344.935 243.4C346.735 243.4 348.302 243.867 349.635 244.8C350.969 245.7 351.985 246.967 352.685 248.6C353.419 250.2 353.785 252.067 353.785 254.2C353.785 256.667 353.419 258.917 352.685 260.95C351.985 262.95 351.019 264.683 349.785 266.15C348.552 267.583 347.169 268.683 345.635 269.45C344.102 270.217 342.519 270.6 340.885 270.6C339.285 270.6 337.785 270.2 336.385 269.4C335.019 268.6 333.952 267.617 333.185 266.45L330.635 281H326.135L331.335 251.25C331.435 250.683 331.485 250.217 331.485 249.85C331.485 248.283 330.669 247.5 329.035 247.5L330.635 244ZM340.485 266.6C342.052 266.6 343.485 266.1 344.785 265.1C346.119 264.067 347.185 262.65 347.985 260.85C348.785 259.05 349.185 256.983 349.185 254.65C349.185 252.383 348.669 250.6 347.635 249.3C346.602 247.967 345.252 247.3 343.585 247.3C342.252 247.3 340.969 247.717 339.735 248.55C338.535 249.383 337.502 250.55 336.635 252.05C335.769 253.55 335.152 255.317 334.785 257.35L333.885 262.4C334.619 263.733 335.569 264.767 336.735 265.5C337.902 266.233 339.152 266.6 340.485 266.6ZM361.764 251.3C361.797 251.133 361.814 250.95 361.814 250.75C361.847 250.517 361.864 250.283 361.864 250.05C361.864 249.117 361.597 248.467 361.064 248.1C360.53 247.7 359.83 247.5 358.964 247.5L360.514 244C362.28 244 363.63 244.433 364.564 245.3C365.53 246.133 366.014 247.383 366.014 249.05V250.05C366.98 247.683 368.214 245.983 369.714 244.95C371.247 243.917 372.98 243.4 374.914 243.4C375.68 243.4 376.33 243.467 376.864 243.6C377.43 243.7 377.897 243.833 378.264 244L376.264 248.4C375.864 248.233 375.447 248.117 375.014 248.05C374.58 247.983 374.08 247.95 373.514 247.95C372.314 247.95 371.114 248.383 369.914 249.25C368.747 250.083 367.68 251.483 366.714 253.45C365.78 255.417 365.014 258.117 364.414 261.55L362.964 270H358.464L361.764 251.3ZM385.827 239.55C384.894 239.55 384.177 239.283 383.677 238.75C383.211 238.183 382.977 237.533 382.977 236.8C382.977 235.733 383.311 234.883 383.977 234.25C384.644 233.583 385.477 233.25 386.477 233.25C387.411 233.25 388.111 233.533 388.577 234.1C389.077 234.633 389.327 235.267 389.327 236C389.327 237.033 388.994 237.883 388.327 238.55C387.661 239.217 386.827 239.55 385.827 239.55ZM382.477 270H377.977L382.527 244H387.027L382.477 270ZM408.97 249.65C408.004 248.983 406.92 248.4 405.72 247.9C404.554 247.4 403.22 247.15 401.72 247.15C400.153 247.15 398.937 247.417 398.07 247.95C397.203 248.483 396.77 249.183 396.77 250.05C396.77 250.55 396.903 251.033 397.17 251.5C397.47 251.933 397.987 252.4 398.72 252.9C399.487 253.4 400.554 254 401.92 254.7C404.187 255.833 405.87 257.017 406.97 258.25C408.07 259.45 408.62 260.933 408.62 262.7C408.62 264.467 408.154 265.933 407.22 267.1C406.287 268.267 405.037 269.15 403.47 269.75C401.904 270.317 400.137 270.6 398.17 270.6C396.137 270.6 394.337 270.35 392.77 269.85C391.237 269.317 389.903 268.633 388.77 267.8L391.32 264.1C392.22 264.833 393.287 265.45 394.52 265.95C395.753 266.45 397.103 266.7 398.57 266.7C400.237 266.7 401.554 266.383 402.52 265.75C403.487 265.117 403.97 264.333 403.97 263.4C403.97 262.533 403.604 261.733 402.87 261C402.17 260.267 400.787 259.383 398.72 258.35C397.053 257.517 395.753 256.717 394.82 255.95C393.887 255.15 393.237 254.3 392.87 253.4C392.503 252.5 392.32 251.467 392.32 250.3C392.32 248.967 392.72 247.783 393.52 246.75C394.32 245.717 395.437 244.9 396.87 244.3C398.303 243.7 399.953 243.4 401.82 243.4C403.687 243.4 405.353 243.65 406.82 244.15C408.32 244.617 409.637 245.183 410.77 245.85L408.97 249.65ZM424.187 270.6C421.987 270.6 420.037 270.133 418.337 269.2C416.67 268.233 415.354 266.867 414.387 265.1C413.454 263.3 412.987 261.183 412.987 258.75C412.987 255.983 413.554 253.433 414.687 251.1C415.854 248.767 417.487 246.9 419.587 245.5C421.72 244.1 424.204 243.4 427.037 243.4C428.97 243.4 430.604 243.767 431.937 244.5C433.304 245.233 434.354 246.183 435.087 247.35C435.82 248.517 436.187 249.767 436.187 251.1C436.187 252.933 435.754 254.45 434.887 255.65C434.02 256.85 432.904 257.783 431.537 258.45C430.17 259.083 428.687 259.533 427.087 259.8C425.52 260.067 424.02 260.2 422.587 260.2C421.687 260.2 420.787 260.167 419.887 260.1C419.02 260 418.254 259.9 417.587 259.8C417.854 262 418.637 263.683 419.937 264.85C421.237 266.017 422.904 266.6 424.937 266.6C426.604 266.6 428.087 266.383 429.387 265.95C430.687 265.517 431.787 265.083 432.687 264.65L433.087 268.65C432.087 269.117 430.82 269.567 429.287 270C427.754 270.4 426.054 270.6 424.187 270.6ZM426.687 247.2C425.12 247.2 423.704 247.6 422.437 248.4C421.17 249.167 420.12 250.233 419.287 251.6C418.487 252.933 417.954 254.467 417.687 256.2C418.454 256.333 419.22 256.45 419.987 256.55C420.787 256.617 421.654 256.65 422.587 256.65C425.387 256.65 427.604 256.267 429.237 255.5C430.87 254.7 431.687 253.35 431.687 251.45C431.687 250.283 431.22 249.283 430.287 248.45C429.387 247.617 428.187 247.2 426.687 247.2ZM472.056 249.65C471.089 248.983 470.006 248.4 468.806 247.9C467.639 247.4 466.306 247.15 464.806 247.15C463.239 247.15 462.023 247.417 461.156 247.95C460.289 248.483 459.856 249.183 459.856 250.05C459.856 250.55 459.989 251.033 460.256 251.5C460.556 251.933 461.073 252.4 461.806 252.9C462.573 253.4 463.639 254 465.006 254.7C467.273 255.833 468.956 257.017 470.056 258.25C471.156 259.45 471.706 260.933 471.706 262.7C471.706 264.467 471.239 265.933 470.306 267.1C469.373 268.267 468.123 269.15 466.556 269.75C464.989 270.317 463.223 270.6 461.256 270.6C459.223 270.6 457.423 270.35 455.856 269.85C454.323 269.317 452.989 268.633 451.856 267.8L454.406 264.1C455.306 264.833 456.373 265.45 457.606 265.95C458.839 266.45 460.189 266.7 461.656 266.7C463.323 266.7 464.639 266.383 465.606 265.75C466.573 265.117 467.056 264.333 467.056 263.4C467.056 262.533 466.689 261.733 465.956 261C465.256 260.267 463.873 259.383 461.806 258.35C460.139 257.517 458.839 256.717 457.906 255.95C456.973 255.15 456.323 254.3 455.956 253.4C455.589 252.5 455.406 251.467 455.406 250.3C455.406 248.967 455.806 247.783 456.606 246.75C457.406 245.717 458.523 244.9 459.956 244.3C461.389 243.7 463.039 243.4 464.906 243.4C466.773 243.4 468.439 243.65 469.906 244.15C471.406 244.617 472.723 245.183 473.856 245.85L472.056 249.65ZM488.123 270.6C485.656 270.6 483.523 270.1 481.723 269.1C479.923 268.1 478.523 266.717 477.523 264.95C476.556 263.15 476.073 261.117 476.073 258.85C476.073 255.95 476.656 253.333 477.823 251C479.023 248.667 480.69 246.817 482.823 245.45C484.956 244.083 487.473 243.4 490.373 243.4C492.84 243.4 494.973 243.9 496.773 244.9C498.573 245.9 499.956 247.283 500.923 249.05C501.923 250.817 502.423 252.85 502.423 255.15C502.423 258.017 501.84 260.633 500.673 263C499.506 265.333 497.84 267.183 495.673 268.55C493.54 269.917 491.023 270.6 488.123 270.6ZM488.273 266.6C490.273 266.6 491.973 266.117 493.373 265.15C494.806 264.15 495.906 262.817 496.673 261.15C497.44 259.483 497.823 257.617 497.823 255.55C497.823 254.017 497.523 252.65 496.923 251.45C496.323 250.217 495.456 249.233 494.323 248.5C493.19 247.767 491.823 247.4 490.223 247.4C488.256 247.4 486.556 247.9 485.123 248.9C483.69 249.867 482.59 251.183 481.823 252.85C481.056 254.517 480.673 256.383 480.673 258.45C480.673 259.95 480.973 261.317 481.573 262.55C482.173 263.783 483.04 264.767 484.173 265.5C485.306 266.233 486.673 266.6 488.273 266.6ZM511.552 261C511.486 261.433 511.436 261.833 511.402 262.2C511.369 262.533 511.352 262.833 511.352 263.1C511.352 264.233 511.686 265.117 512.352 265.75C513.052 266.383 513.969 266.7 515.102 266.7C515.669 266.7 516.236 266.633 516.802 266.5C517.369 266.367 517.886 266.183 518.352 265.95L518.802 269.6C518.202 269.9 517.502 270.133 516.702 270.3C515.902 270.5 515.036 270.6 514.102 270.6C512.102 270.6 510.386 270.033 508.952 268.9C507.552 267.733 506.852 265.983 506.852 263.65C506.852 262.783 506.919 261.933 507.052 261.1L511.952 233H516.452L511.552 261ZM529.87 270.6C528.537 270.6 527.303 270.3 526.17 269.7C525.07 269.1 524.187 268.267 523.52 267.2C522.853 266.1 522.52 264.8 522.52 263.3C522.52 262.867 522.537 262.433 522.57 262C522.603 261.533 522.653 261.05 522.72 260.55L525.57 244H530.07L527.17 260.45C527.137 260.783 527.103 261.083 527.07 261.35C527.037 261.583 527.02 261.85 527.02 262.15C527.02 263.65 527.453 264.767 528.32 265.5C529.187 266.233 530.203 266.6 531.37 266.6C532.637 266.6 533.87 266.217 535.07 265.45C536.303 264.65 537.387 263.517 538.32 262.05C539.254 260.583 539.904 258.817 540.27 256.75L542.52 244H547.02L543.72 262.95C543.687 263.117 543.654 263.317 543.62 263.55C543.62 263.75 543.62 263.967 543.62 264.2C543.62 265.133 543.887 265.8 544.42 266.2C544.954 266.567 545.654 266.75 546.52 266.75L544.97 270.25C543.17 270.25 541.787 269.817 540.82 268.95C539.887 268.05 539.42 266.667 539.42 264.8V264.35C536.987 268.517 533.803 270.6 529.87 270.6ZM551.875 244.95H556.475L558.875 236.75H562.325L560.875 244.95H568.075L567.425 248.85H560.175L558.075 261C558.009 261.367 557.959 261.717 557.925 262.05C557.892 262.35 557.875 262.633 557.875 262.9C557.875 264.067 558.225 264.983 558.925 265.65C559.625 266.283 560.542 266.6 561.675 266.6C562.642 266.6 563.459 266.467 564.125 266.2C564.792 265.9 565.392 265.6 565.925 265.3L566.475 269.2C565.842 269.567 565.042 269.883 564.075 270.15C563.142 270.45 562.092 270.6 560.925 270.6C559.692 270.6 558.492 270.35 557.325 269.85C556.192 269.35 555.259 268.567 554.525 267.5C553.792 266.4 553.425 264.983 553.425 263.25C553.425 262.517 553.492 261.7 553.625 260.8L555.675 248.85H551.225L551.875 244.95ZM578.356 239.55C577.423 239.55 576.706 239.283 576.206 238.75C575.74 238.183 575.506 237.533 575.506 236.8C575.506 235.733 575.84 234.883 576.506 234.25C577.173 233.583 578.006 233.25 579.006 233.25C579.94 233.25 580.64 233.533 581.106 234.1C581.606 234.633 581.856 235.267 581.856 236C581.856 237.033 581.523 237.883 580.856 238.55C580.19 239.217 579.356 239.55 578.356 239.55ZM575.006 270H570.506L575.056 244H579.556L575.006 270ZM595.349 270.6C592.883 270.6 590.749 270.1 588.949 269.1C587.149 268.1 585.749 266.717 584.749 264.95C583.783 263.15 583.299 261.117 583.299 258.85C583.299 255.95 583.883 253.333 585.049 251C586.249 248.667 587.916 246.817 590.049 245.45C592.183 244.083 594.699 243.4 597.599 243.4C600.066 243.4 602.199 243.9 603.999 244.9C605.799 245.9 607.183 247.283 608.149 249.05C609.149 250.817 609.649 252.85 609.649 255.15C609.649 258.017 609.066 260.633 607.899 263C606.733 265.333 605.066 267.183 602.899 268.55C600.766 269.917 598.249 270.6 595.349 270.6ZM595.499 266.6C597.499 266.6 599.199 266.117 600.599 265.15C602.033 264.15 603.133 262.817 603.899 261.15C604.666 259.483 605.049 257.617 605.049 255.55C605.049 254.017 604.749 252.65 604.149 251.45C603.549 250.217 602.683 249.233 601.549 248.5C600.416 247.767 599.049 247.4 597.449 247.4C595.483 247.4 593.783 247.9 592.349 248.9C590.916 249.867 589.816 251.183 589.049 252.85C588.283 254.517 587.899 256.383 587.899 258.45C587.899 259.95 588.199 261.317 588.799 262.55C589.399 263.783 590.266 264.767 591.399 265.5C592.533 266.233 593.899 266.6 595.499 266.6ZM629.679 247.35C628.512 247.35 627.245 247.783 625.879 248.65C624.512 249.517 623.245 250.867 622.079 252.7C620.945 254.5 620.129 256.817 619.629 259.65L617.829 270H613.329L617.879 244H622.229L621.129 250C622.162 248 623.545 246.4 625.279 245.2C627.045 244 628.895 243.4 630.829 243.4C633.095 243.4 634.912 244.1 636.279 245.5C637.645 246.867 638.329 248.55 638.329 250.55C638.329 251.383 638.229 252.433 638.029 253.7L635.179 270H630.679L633.429 254.45C633.595 253.65 633.695 253.067 633.729 252.7C633.762 252.3 633.779 251.933 633.779 251.6C633.779 250.3 633.395 249.267 632.629 248.5C631.895 247.733 630.912 247.35 629.679 247.35ZM660.972 249.65C660.005 248.983 658.922 248.4 657.722 247.9C656.555 247.4 655.222 247.15 653.722 247.15C652.155 247.15 650.939 247.417 650.072 247.95C649.205 248.483 648.772 249.183 648.772 250.05C648.772 250.55 648.905 251.033 649.172 251.5C649.472 251.933 649.989 252.4 650.722 252.9C651.489 253.4 652.555 254 653.922 254.7C656.189 255.833 657.872 257.017 658.972 258.25C660.072 259.45 660.622 260.933 660.622 262.7C660.622 264.467 660.155 265.933 659.222 267.1C658.289 268.267 657.039 269.15 655.472 269.75C653.905 270.317 652.139 270.6 650.172 270.6C648.139 270.6 646.339 270.35 644.772 269.85C643.239 269.317 641.905 268.633 640.772 267.8L643.322 264.1C644.222 264.833 645.289 265.45 646.522 265.95C647.755 266.45 649.105 266.7 650.572 266.7C652.239 266.7 653.555 266.383 654.522 265.75C655.489 265.117 655.972 264.333 655.972 263.4C655.972 262.533 655.605 261.733 654.872 261C654.172 260.267 652.789 259.383 650.722 258.35C649.055 257.517 647.755 256.717 646.822 255.95C645.889 255.15 645.239 254.3 644.872 253.4C644.505 252.5 644.322 251.467 644.322 250.3C644.322 248.967 644.722 247.783 645.522 246.75C646.322 245.717 647.439 244.9 648.872 244.3C650.305 243.7 651.955 243.4 653.822 243.4C655.689 243.4 657.355 243.65 658.822 244.15C660.322 244.617 661.639 245.183 662.772 245.85L660.972 249.65Z" fill="#CD3440"/>
</svg>
